<svg xmlns="http://www.w3.org/2000/svg" width="32" height="32"><path fill="#fee7a1" d="M10.14 23.009H5.5V5.359h17.65v2.017" class="st18"/><path fill="#fff" d="M5.5 5.36v17.65h1.494V5.36H5.5z"/><path fill="#fff" d="M5.5 5.36V6.87h17.65V5.359H5.5z"/><path fill="#ffd28e" d="m23.759 25.199-12.813 2.3-3.119-17.372L25.2 7.008l2.3 12.812" class="st20"/><path fill="#fff" d="M25.201 7.508 7.828 10.627l.174.968L25.2 8.508l2.156 12.017.143-.205L25.2 7.508z"/><path fill="#fff" d="M25.201 7.008 7.828 10.127l3.12 17.373 1.444-.26L9.32 10.127l15.928-2.86-.047-.26z"/><path fill="#bea47e" d="m22.94 20.639 4.56-.819-3.742 5.379z" class="st18"/><path fill="#444a54" d="M27.99 19.862a.364.364 0 0 0 0-.066c0-.022.005-.042.001-.064l-2.3-12.813a.503.503 0 0 0-.58-.404l-1.46.263V5.36a.5.5 0 0 0-.5-.5H5.5a.5.5 0 0 0-.5.5v17.65a.5.5 0 0 0 .5.5h4.221l.732 4.08a.5.5 0 0 0 .491.411c.03 0 .06 0 .09-.01l12.812-2.3c.033-.01.06-.024.09-.036.023-.01.046-.014.068-.027a.502.502 0 0 0 .165-.145l3.74-5.376a.489.489 0 0 0 .08-.246zM6 22.51V5.86h16.65v1.1L7.74 9.634a.499.499 0 0 0-.405.58L9.542 22.51H6zm2.407-11.978 16.39-2.942 2.122 11.828-4.068.73a.502.502 0 0 0-.404.581l.731 4.068L11.35 26.92 8.407 10.531zm15.63 13.392-.518-2.88 2.881-.517-2.363 3.397z" class="st21"/></svg>